<svg xmlns="http://www.w3.org/2000/svg" xmlns:xlink="http://www.w3.org/1999/xlink" version="1.1" id="logo-image" x="0" y="0" width="800" height="156" viewBox="0 0 800 156" xml:space="preserve" enable-background="new 0 0 800 156" class="BB-logo">
					<style type="text/css">

					.st0{fill:#80C19B;}
					.st1{fill:#1F1E21;}
					.st2{display:inline;fill:none;stroke:#1F1E21;stroke-width:0.2488;}
					.st3{fill:none;stroke:#1F1E21;stroke-width:0.25;}
					.st4{fill:#FFFFFF;}
					.st5{display:inline;}
					.st6{fill:#003D79;}
					.st7{display:none;}
					.st8{display:inline;fill:none;stroke:#1F1E21;stroke-width:0.25;}

					</style>
					<g id="Background"></g>
					<g id="Foreground">
					<path class="st0" d="M25.31 36.04l-0.01 39.9c0 21.41 17.36 38.77 38.77 38.77h50.53c21.41 0 38.77-17.36 38.77-38.77V36.03c0.03 0.05 25.32 0.02 25.29 0.02l0 39.89c0 35.39-28.68 64.06-64.06 64.06H64.06C28.68 140 0 111.32 0 75.93l0.01-39.9C0.02 36.05 25.31 36.04 25.31 36.04z"></path>
					<path class="st6" d="M33.78 39.75c0 18.7-0.05 35.78-0.05 35.78 0 16.75 13.58 30.33 30.34 30.33h50.53c16.75 0 30.34-13.59 30.34-30.34 0 0 0.01-18.77 0.01-35.77 0 0.61-7.56-39.55-55.92-39.55C40.83 0.2 33.8 39.82 33.78 39.75z"></path>
					<path class="st4" d="M113.85 57.19c5.14-4.91 4.77-14 2.9-17.72 -1.64-3.28-4.84-9.53-15.64-9.53H65.74v54.52h35.37c10.8 0 14-6.26 15.64-9.53 1.86-3.72 2.24-12.81-2.9-17.72V57.19zM102.11 73.09c-5.74 0-25.21 0-25.21 0V62.69c0 0 18.25 0 25.21 0 2.87 0 4.61 2.61 4.61 5.2C106.72 70.49 104.98 73.09 102.11 73.09zM102.11 51.7c-6.95 0-25.21 0-25.21 0V41.3c0 0 19.47 0 25.21 0 2.87 0 4.61 2.6 4.61 5.2C106.72 49.1 104.98 51.7 102.11 51.7z"></path>
					<path class="st6" d="M224.01 35.98h32.91c13.27 0 22.33 4.32 22.33 17.37 0 6.8-3.45 11.65-9.49 14.57 8.52 2.38 12.73 8.95 12.73 17.7 0 14.24-11.98 20.28-24.6 20.28h-33.88V35.98zM239.33 64.25h15.54c5.4 0 9.5-2.37 9.5-8.31 0-6.69-5.18-7.98-10.57-7.98h-14.46V64.25zM239.33 93.92h16.51c6.04 0 11.33-1.94 11.33-9.17 0-7.12-4.53-10.03-11.11-10.03h-16.72V93.92z"></path>
					<path class="st6" d="M292.16 35.98h52.22v12.95h-36.9V63.93h33.88v11.87h-33.88v17.16h37.77v12.95h-53.08V35.98z"></path>
					<path class="st6" d="M355.4 35.98h37.66c12.52 0 20.5 8.74 20.5 19.31 0 8.2-3.34 14.35-11.11 17.48v0.21c7.56 1.94 9.82 9.28 10.25 16.4 0.32 4.31 0.11 12.62 2.91 16.51h-15.43c-1.83-4.42-1.62-11.11-2.37-16.72 -1.08-7.34-3.99-10.57-11.65-10.57h-15.43v27.3h-15.32V35.98zM370.72 67.6h16.83c6.9 0 10.57-2.91 10.57-10.03 0-6.69-3.67-9.6-10.57-9.6h-16.83V67.6z"></path>
					<path class="st6" d="M474.56 97.92c-5.39 7.01-12.41 9.6-19.2 9.6 -21.58 0-34.42-16.08-34.42-36.25 0-20.82 12.84-37.01 34.42-37.01 14.35 0 27.84 8.85 29.46 24.71h-14.68c-1.73-7.77-7.55-11.76-14.78-11.76 -13.81 0-18.99 11.76-18.99 24.06 0 11.65 5.18 23.41 18.99 23.41 10.03 0 15.75-5.4 16.62-15.1h-15.43V68.14h29.34v37.76h-9.71L474.56 97.92z"></path>
					<path class="st6" d="M497.79 35.98h52.23v12.95h-36.9V63.93h33.88v11.87h-33.88v17.16h37.76v12.95h-53.08V35.98z"></path>
					<path class="st6" d="M561.13 35.98h29.67c11.66 0 22.34 4.1 22.34 17.16 0 7.33-4.86 14.02-12.09 15.64V69c8.96 1.19 14.79 7.87 14.79 17.05 0 6.58-2.37 19.85-25.04 19.85h-29.67V35.98zM567.82 66.63h22.98c10.58 0 15.76-5.29 15.76-11.87 0-8.74-5.39-13.05-15.76-13.05h-22.98V66.63zM567.82 100.18h22.98c10.04 0 18.34-3.45 18.34-14.35 0-8.96-6.69-13.49-18.34-13.49h-22.98V100.18z"></path>
					<path class="st6" d="M624.32 35.98h6.69v43.27c0 16.4 7.77 22.44 20.4 22.44 12.84 0 20.61-6.04 20.61-22.44V35.98h6.69v44.78c0 14.35-7.77 26.65-27.29 26.65 -19.32 0-27.08-12.3-27.08-26.65V35.98z"></path>
					<path class="st6" d="M690.96 35.98h6.69v64.2h39.16v5.72h-45.85V35.98z"></path>
					<path class="st6" d="M742.2 35.98h6.69v37.55l40.67-37.55h8.96l-31.18 28.91 32.69 41h-8.63L762.27 69.43l-13.38 12.52v23.95h-6.69V35.98z"></path>
					<path class="st0" d="M487.33 145.28h-3.74l2.56-13.36c0.63-3.28 0.04-4.75-1.68-4.75 -3.57 0-7.94 7.73-9.04 13.41l-0.88 4.71h-3.69l2.56-13.36c0.63-3.28 0.09-4.75-1.72-4.75 -3.53 0-7.9 7.73-9 13.41l-0.88 4.71h-3.7l2.1-10.93c0.59-3.11 1.3-6.89 1.85-9.96h3.66c-0.25 1.39-0.84 3.82-2.31 8.24h0.09c1.93-4.37 5.21-8.66 9.5-8.66 2.69 0 4.21 1.47 4.21 4.08 0 1.3-0.34 2.52-1.01 4.63l0.08 0.04c1.93-4.5 5.21-8.74 9.5-8.74 3.78 0 5.09 2.73 4.24 7.1L487.33 145.28z"></path>
					<path class="st0" d="M501.54 145.66c-5.25 0-7.65-2.65-7.65-7.44 0-8.32 5.3-14.21 12.1-14.21 5.51 0 7.78 3.11 7.78 7.52C513.77 140.15 507.85 145.66 501.54 145.66zM505.41 127.21c-4.58 0-7.65 5.13-7.65 10.38 0 3.11 1.26 4.83 4.42 4.83 4.08 0 7.65-4.37 7.65-10.46C509.82 128.89 508.43 127.21 505.41 127.21z"></path>
					<path class="st0" d="M524.19 145.28h-3.86l-3.7-20.89h3.99l1.94 12.27c0.21 1.3 0.38 2.77 0.46 4.03h0.04l8.83-17.19 3.48 1.22L524.19 145.28z"></path>
					<path class="st0" d="M539.7 145.28h-3.7l3.99-20.89h3.7L539.7 145.28zM542.81 120.95c-1.39 0-2.4-1.09-2.31-2.39 0.04-1.43 1.26-2.52 2.65-2.52 1.34 0 2.4 1.05 2.31 2.36C545.38 119.81 544.16 120.95 542.81 120.95z"></path>
					<path class="st0" d="M563.74 145.28h-3.7l2.57-13.36c0.63-3.28 0.04-4.71-1.85-4.71 -3.86 0-8.15 8.2-9.12 13.37l-0.88 4.71h-3.7l2.1-10.93c0.55-2.98 1.3-6.89 1.85-9.96h3.66c-0.25 1.39-0.84 3.78-2.31 8.24h0.09c1.98-4.41 5.3-8.66 9.66-8.66 3.87 0 5.17 2.73 4.37 7.1L563.74 145.28z"></path>
					<path class="st0" d="M586.4 147.22c-0.96 5-4.16 8.78-12.14 8.78 -2.31 0-4.08-0.29-5.63-0.8l0.88-3.66c1.6 0.76 3.66 1.18 5.59 1.18 4.33 0 6.89-1.68 7.82-6.43 0.59-3.19 1.09-4.83 2.52-9.33h-0.09c-1.43 3.03-4.58 8.74-9.66 8.74 -3.03 0-4.67-1.93-4.67-6.35 0-7.69 4.03-15.3 13.11-15.3 2.4 0 4.63 0.25 6.56 0.63L586.4 147.22zM583.5 127.04c-6.22 0-8.66 6.43-8.66 11.6 0 2.73 0.84 3.83 2.15 3.83 3.95 0 8.24-8.36 9.2-13.37l0.3-1.68C585.65 127.21 584.68 127.04 583.5 127.04z"></path>
					<path class="st0" d="M634.78 145.28h-3.74l2.56-13.36c0.63-3.28 0.04-4.75-1.68-4.75 -3.57 0-7.94 7.73-9.03 13.41L622 145.28h-3.7l2.57-13.36c0.63-3.28 0.08-4.75-1.72-4.75 -3.53 0-7.9 7.73-9 13.41l-0.88 4.71h-3.7l2.1-10.93c0.59-3.11 1.31-6.89 1.85-9.96h3.66c-0.25 1.39-0.84 3.82-2.31 8.24h0.08c1.93-4.37 5.21-8.66 9.5-8.66 2.69 0 4.2 1.47 4.2 4.08 0 1.3-0.34 2.52-1.01 4.63l0.09 0.04c1.94-4.5 5.21-8.74 9.5-8.74 3.78 0 5.08 2.73 4.24 7.1L634.78 145.28z"></path>
					<path class="st0" d="M649.74 145.66c-5.26 0-7.65-2.65-7.65-7.44 0-8.32 5.3-14.21 12.11-14.21 5.51 0 7.78 3.11 7.78 7.52C661.97 140.15 656.05 145.66 649.74 145.66zM653.61 127.21c-4.58 0-7.65 5.13-7.65 10.38 0 3.11 1.26 4.83 4.41 4.83 4.08 0 7.65-4.37 7.65-10.46C658.02 128.89 656.64 127.21 653.61 127.21z"></path>
					<path class="st0" d="M681.94 145.28h-3.7c0.29-1.39 0.84-3.78 2.31-8.24h-0.08c-1.98 4.41-5.26 8.66-9.62 8.66 -3.87 0-5.21-2.73-4.37-7.1l2.69-14.21h3.74l-2.56 13.37c-0.63 3.28-0.04 4.71 1.81 4.71 3.87 0 8.19-8.2 9.16-13.37l0.88-4.71h3.7L681.94 145.28z"></path>
					<path class="st0" d="M705.98 145.28h-3.7l2.57-13.36c0.63-3.28 0.04-4.71-1.85-4.71 -3.86 0-8.15 8.2-9.12 13.37l-0.88 4.71h-3.7l2.1-10.93c0.55-2.98 1.3-6.89 1.85-9.96h3.66c-0.25 1.39-0.84 3.78-2.31 8.24h0.09c1.98-4.41 5.3-8.66 9.67-8.66 3.87 0 5.17 2.73 4.37 7.1L705.98 145.28z"></path>
					<path class="st0" d="M726.57 127.34h-5.67l-2.06 10.93c-0.59 3.24-0.17 4.12 1.89 4.12 1.18 0 2.06-0.13 2.9-0.34l-0.25 3.15c-1.22 0.25-2.69 0.42-3.91 0.42 -4.29 0-5.38-2.02-4.5-6.77l2.23-11.52h-4.25l0.59-2.94h4.21l1.3-6.77 3.91-0.88 -1.47 7.65h5.67L726.57 127.34z"></path>
					<path class="st0" d="M744.31 145.28h-3.74c0.38-1.81 1.18-4.58 2.44-8.49l-0.08-0.04c-1.51 3.24-4.67 8.95-9.75 8.95 -3.03 0-4.67-1.93-4.67-6.35 0-7.69 3.99-15.3 13.11-15.3 2.4 0 4.63 0.25 6.56 0.63C745.95 136.37 745.19 140.28 744.31 145.28zM740.99 127.04c-6.22 0-8.66 6.43-8.66 11.6 0 2.73 0.84 3.83 2.15 3.83 3.95 0 8.24-8.36 9.2-13.37l0.3-1.68C743.13 127.21 742.16 127.04 740.99 127.04z"></path>
					<path class="st0" d="M755.32 145.28h-3.7l3.99-20.89h3.7L755.32 145.28zM758.43 120.95c-1.39 0-2.4-1.09-2.31-2.39 0.04-1.43 1.26-2.52 2.65-2.52 1.34 0 2.4 1.05 2.31 2.36C761 119.81 759.78 120.95 758.43 120.95z"></path>
					<path class="st0" d="M779.36 145.28h-3.7l2.57-13.36c0.63-3.28 0.04-4.71-1.85-4.71 -3.86 0-8.15 8.2-9.12 13.37l-0.88 4.71h-3.7l2.1-10.93c0.55-2.98 1.3-6.89 1.85-9.96h3.66c-0.25 1.39-0.84 3.78-2.31 8.24h0.09c1.98-4.41 5.3-8.66 9.66-8.66 3.87 0 5.17 2.73 4.37 7.1L779.36 145.28z"></path>
					<path class="st0" d="M799.33 127.38c-1.01-0.34-2.1-0.51-3.15-0.51 -2.73 0-4.16 1.31-4.16 3.07 0 3.32 6.35 4.21 6.35 8.91 0 3.49-3.07 6.81-8.99 6.81 -1.39 0-2.52-0.08-3.57-0.29l0.67-3.36c1.09 0.34 2.23 0.55 3.4 0.55 2.73 0 4.58-1.09 4.58-3.28 0-3.32-6.3-3.87-6.3-8.91 0-3.57 2.86-6.35 8.28-6.35 1.47 0 2.52 0.13 3.57 0.3L799.33 127.38z"></path>
					</g>
					<g id="Guides_and_Measures" class="st7">
					<line class="st8" x1="685.27" y1="114.62" x2="685.27" y2="97.62"></line>
					<line class="st8" x1="484.53" y1="125.88" x2="484.53" y2="20.24"></line>
					<line class="st8" x1="670.31" y1="125.88" x2="670.31" y2="20.24"></line>
					<line class="st8" x1="673.34" y1="100.34" x2="687.51" y2="100.34"></line>
					<line class="st8" x1="673.34" y1="111.9" x2="687.51" y2="111.9"></line>
					<line class="st8" x1="683.4" y1="102.24" x2="687.12" y2="98.52"></line>
					<g class="st5">
						<line class="st3" x1="468.23" y1="100.34" x2="476.67" y2="100.34"></line>
						<line class="st3" x1="472.56" y1="102.24" x2="476.29" y2="98.52"></line>
					</g>
					<line class="st8" x1="683.4" y1="113.76" x2="687.12" y2="110.04"></line>
					<line class="st8" x1="474.43" y1="114.62" x2="474.43" y2="97.62"></line>
					<line class="st8" x1="468.23" y1="111.9" x2="482.41" y2="111.9"></line>
					<line class="st8" x1="472.56" y1="113.76" x2="476.29" y2="110.04"></line>
					<line class="st8" x1="472.56" y1="107.88" x2="476.29" y2="104.16"></line>
					<g class="st5">
						<path class="st1" d="M691.59 103.72l0.69 1.03c0.18 0.28 0.33 0.52 0.49 0.79h0.03c0.16-0.28 0.32-0.53 0.49-0.79l0.67-1.03h0.96l-1.65 2.34 1.69 2.5h-1l-0.71-1.09c-0.19-0.28-0.35-0.55-0.52-0.84h-0.02c-0.16 0.29-0.33 0.55-0.51 0.84l-0.7 1.09h-0.97l1.72-2.47 -1.64-2.37H691.59z"></path>
					</g>
					<line class="st2" x1="685.27" y1="90.22" x2="685.27" y2="46.85"></line>
					<line class="st8" x1="673.34" y1="49.44" x2="687.51" y2="49.44"></line>
					<line class="st8" x1="673.34" y1="87.49" x2="687.51" y2="87.49"></line>
					<line class="st8" x1="683.4" y1="51.34" x2="687.12" y2="47.62"></line>
					<line class="st8" x1="683.4" y1="89.36" x2="687.12" y2="85.64"></line>
					<line class="st2" x1="360.77" y1="30.5" x2="329.27" y2="30.5"></line>
					<line class="st8" x1="331.85" y1="42.43" x2="331.85" y2="28.26"></line>
					<line class="st8" x1="358.03" y1="42.43" x2="358.03" y2="28.26"></line>
					<line class="st8" x1="333.76" y1="32.36" x2="330.04" y2="28.64"></line>
					<line class="st8" x1="359.9" y1="32.36" x2="356.18" y2="28.64"></line>
					<g class="st5">
						<path class="st1" d="M691.5 65.17l1.05 2.86c0.12 0.32 0.24 0.7 0.32 0.99h0.02c0.09-0.29 0.19-0.66 0.31-1.01l0.96-2.84h0.93l-1.32 3.45c-0.63 1.66-1.06 2.51-1.66 3.04 -0.44 0.37-0.86 0.52-1.08 0.56l-0.22-0.74c0.22-0.06 0.51-0.2 0.77-0.43 0.24-0.19 0.53-0.53 0.74-0.98 0.04-0.09 0.07-0.15 0.07-0.21 0-0.05-0.02-0.12-0.07-0.22l-1.78-4.47H691.5z"></path>
					</g>
					<g class="st5">
						<path class="st1" d="M335.89 23.62c-1.27 0-2.14-1.19-2.16-3.34 0-2.19 0.95-3.38 2.27-3.38 1.36 0 2.15 1.22 2.15 3.29 0 2.21-0.83 3.43-2.25 3.43H335.89zM335.93 22.94c0.89 0 1.32-1.05 1.32-2.71 0-1.6-0.4-2.65-1.32-2.65 -0.8 0-1.32 1.02-1.32 2.65 -0.02 1.69 0.5 2.71 1.31 2.71H335.93z"></path>
						<path class="st1" d="M339.6 23.62c-0.34 0-0.58-0.27-0.58-0.63 0-0.36 0.25-0.63 0.6-0.63 0.35 0 0.59 0.26 0.59 0.63 0 0.36-0.24 0.63-0.6 0.63H339.6z"></path>
						<path class="st1" d="M344.73 17.62c-0.18-0.01-0.41 0.01-0.66 0.05 -1.39 0.22-2.11 1.23-2.26 2.31h0.02c0.31-0.42 0.86-0.76 1.58-0.76 1.15 0 1.96 0.84 1.96 2.1 0 1.2-0.81 2.3-2.17 2.3 -1.38 0-2.29-1.08-2.29-2.77 0-1.28 0.45-2.29 1.1-2.94 0.54-0.53 1.26-0.86 2.08-0.96 0.26-0.04 0.48-0.05 0.64-0.05V17.62zM343.22 22.94c0.75 0 1.26-0.63 1.26-1.56s-0.53-1.49-1.34-1.49c-0.53 0-1.03 0.32-1.27 0.8 -0.05 0.1-0.09 0.22-0.09 0.38 0.01 1.07 0.51 1.87 1.43 1.87H343.22z"></path>
						<path class="st1" d="M346.66 22.9c0.19 0.01 0.41 0 0.71-0.04 0.51-0.06 0.99-0.27 1.36-0.63 0.43-0.39 0.74-0.96 0.86-1.73h-0.03c-0.36 0.44-0.88 0.7-1.54 0.7 -1.17 0-1.92-0.88-1.92-2 0-1.22 0.9-2.3 2.23-2.3s2.15 1.07 2.15 2.74c0 1.43-0.48 2.43-1.12 3.06 -0.5 0.48-1.19 0.79-1.89 0.87 -0.32 0.04-0.61 0.06-0.81 0.05V22.9zM348.25 17.57c-0.74 0-1.27 0.66-1.27 1.58 0 0.81 0.49 1.38 1.25 1.38 0.59 0 1.05-0.29 1.29-0.68 0.04-0.08 0.07-0.18 0.07-0.32 0.01-1.12-0.41-1.96-1.33-1.96H348.25z"></path>
						<path class="st1" d="M352.68 18.67l1.05 2.86c0.12 0.32 0.24 0.7 0.32 0.99h0.02c0.09-0.29 0.19-0.66 0.31-1.01l0.96-2.84h0.93l-1.32 3.45c-0.63 1.66-1.06 2.51-1.66 3.04 -0.44 0.37-0.86 0.52-1.08 0.56l-0.22-0.74c0.22-0.06 0.51-0.2 0.77-0.43 0.24-0.19 0.53-0.53 0.74-0.98 0.04-0.09 0.07-0.15 0.07-0.21 0-0.05-0.02-0.12-0.07-0.22l-1.78-4.47H352.68z"></path>
					</g>
					<g class="st5">
						<path class="st1" d="M448.55 114.46c-1.27 0-2.14-1.19-2.16-3.34 0-2.19 0.95-3.38 2.27-3.38 1.36 0 2.15 1.22 2.15 3.29 0 2.21-0.83 3.43-2.25 3.43H448.55zM448.59 113.78c0.89 0 1.32-1.05 1.32-2.71 0-1.6-0.4-2.65-1.32-2.65 -0.8 0-1.32 1.02-1.32 2.65 -0.02 1.69 0.5 2.71 1.31 2.71H448.59z"></path>
						<path class="st1" d="M452.26 114.46c-0.34 0-0.58-0.27-0.58-0.63 0-0.36 0.25-0.63 0.6-0.63 0.35 0 0.59 0.26 0.59 0.63 0 0.36-0.24 0.63-0.6 0.63H452.26z"></path>
						<path class="st1" d="M457.56 108.59h-2.48l-0.25 1.65c0.15-0.02 0.29-0.04 0.53-0.04 0.51 0 1 0.11 1.4 0.35 0.51 0.28 0.93 0.85 0.93 1.69 0 1.27-1.01 2.22-2.42 2.22 -0.71 0-1.3-0.2-1.62-0.4l0.22-0.67c0.27 0.16 0.8 0.36 1.4 0.36 0.82 0 1.54-0.54 1.53-1.42 0-0.86-0.57-1.45-1.86-1.45 -0.38 0-0.67 0.03-0.91 0.07l0.42-3.1h3.11V108.59z"></path>
						<path class="st1" d="M460.3 109.51l0.69 1.03c0.18 0.28 0.33 0.52 0.49 0.79h0.03c0.16-0.28 0.32-0.53 0.49-0.79l0.67-1.03h0.96l-1.65 2.34 1.69 2.5h-1l-0.71-1.09c-0.19-0.28-0.35-0.55-0.52-0.84h-0.02c-0.16 0.29-0.33 0.55-0.51 0.84l-0.7 1.09h-0.97l1.72-2.47 -1.64-2.37H460.3z"></path>
					</g>
					<line class="st8" x1="224.38" y1="106.02" x2="476.67" y2="106.02"></line>
					<line class="st8" x1="224.38" y1="87.49" x2="351.38" y2="87.49"></line>
					<line class="st8" x1="224.38" y1="49.49" x2="351.38" y2="49.49"></line>
					</g>
				</svg>