<?xml version="1.0" encoding="UTF-8"?>
<svg id="Layer_1" data-name="Layer 1" xmlns="http://www.w3.org/2000/svg" version="1.1" viewBox="0 0 1080 1080">
  <defs>
    <style>
      .cls-1 {
        fill: #db2927;
      }

      .cls-1, .cls-2, .cls-3, .cls-4 {
        stroke-width: 0px;
      }

      .cls-5 {
        fill: #234284;
      }

      .cls-5, .cls-6, .cls-7, .cls-8 {
        isolation: isolate;
      }

      .cls-5, .cls-7, .cls-8 {
        font-family: TimesNewRomanPS-BoldMT, 'Times New Roman';
        font-size: 117.2px;
        font-weight: 700;
      }

      .cls-7 {
        fill: #db2a27;
      }

      .cls-2 {
        fill: #dd2b27;
      }

      .cls-3 {
        fill: #244084;
      }

      .cls-4 {
        fill: #224084;
      }

      .cls-8 {
        fill: #231f20;
      }
    </style>
  </defs>
  <g>
    <path class="cls-4" d="M445.6,415c-52.1,0-104.2,0-156.3,0-4.8,0-5.8-1.4-5.9-5.9-.8-34.7,1.2-69.2,11.6-102.5,21.1-68.1,64.5-114.7,134.6-131.7,54.9-13.3,108.7-8,158.2,21.8,38.1,22.9,65,55.8,79.3,97.7,23.2,67.6,24.9,136.3,1.2,203.9-24.4,69.2-75.2,109.1-147.3,121.5-36.3,6.2-72.7,5.4-108.4-4.4-61.3-16.9-100.8-57-121.8-116.3-1.5-4.2-2.7-8.5-4.1-12.7-.9-2.5-.5-3.6,2.4-4,22.9-2.7,45.7-5.5,68.5-8.4,3.4-.5,4.8.5,5.9,3.7,5.3,14.4,12.1,28.1,21.2,40.5,21.9,30,52.1,44,88.7,44.5,62.3.9,109.3-35.5,126.8-97.6,4.1-14.8,6.3-29.9,7.7-45.2.4-4.3-.9-5.1-4.9-5.1-52.4.2-104.9,0-157.3,0h0ZM482.4,354.4h116.6c2.4,0,5.2.9,4.8-3.6-2.4-27.1-9.7-52.4-26.6-74.2-26.3-34-61.3-48.7-104-47-46.4,1.8-87.1,31.5-102.2,75.3-5,14.4-7.6,29.2-9.5,44.3-.5,4.5.5,5.4,4.8,5.4,38.7-.2,77.3,0,116.1,0h0Z"/>
    <path class="cls-2" d="M707.6,561c37.9-22.4,91.4-8.5,115.6,30,34.7,55.2,1.4,126-63.4,134.9-46.9,6.5-92.4-28.5-98-75.4,1.5.5,2.9,1,4.4,1.6,18,6.7,35,4.4,49.9-7.6,14.8-12.1,20.8-28.2,17.7-47.2-2.7-16.4-12.2-27.9-26.1-36.2h0Z"/>
    <path class="cls-3" d="M707.6,561c14,8.3,23.6,19.8,26.1,36.2,3,19-2.8,35.1-17.7,47.2-14.9,12.1-31.8,14.4-49.9,7.6-1.4-.5-2.9-1-4.4-1.6-3-2.1-6-4-8.7-6.2-19-15.6-23.9-42.4-11.6-63.8,12.1-20.9,37.9-30,60.7-21.5,1.8.6,3.5,1.2,5.3,1.9h0Z"/>
    <path class="cls-1" d="M327.9,661.7c69.5,0,136.1,13.9,199.6,42.8,53.9,24.6,110.3,41.3,169.4,48.3,68.9,8.2,136.1.4,202-20.8,18.2-5.9,36.1-12.4,53.9-19.4,2-.8,3.7-2.3,5.2,1.2,1.6,3.8-.9,4-3,4.8-40.4,15.8-81.3,29.4-124.2,36.8-40,6.9-80.2,8.6-120.7,5-67.1-5.9-130.5-25.4-191.6-52.9-64.1-28.9-131.5-41-201.6-39.3-50.4,1.2-99.8,8.7-147.8,24.7-2.4.8-3.5.5-4.5-2.1-1.2-3.1.5-3.4,2.7-4.1,32.1-10.8,65.1-17.3,98.6-21.3,20.7-2.5,41.4-3.7,62.3-3.7h0Z"/>
    <path class="cls-3" d="M320.7,681.6c77,0,143.5,13.9,207,42.8,53.2,24.2,108.6,40.7,166.8,47.9,67.6,8.4,133.8,1.4,198.6-18.8,20.2-6.3,40-13.5,59.7-21.2,2.2-.9,3.7-1.7,5.1,1.6,1.4,3.5-.9,3.7-2.9,4.5-39.9,15.6-80.3,29.1-122.6,36.5-37.4,6.6-75,8.6-112.9,6.1-69.5-4.6-135.3-24-198.5-52.5-58.3-26.4-119.5-39.5-183.3-40.5-57.4-.9-113.8,6.7-168.5,24.7-2.7.9-3.7.6-4.8-2.2-1.2-3.4,1.1-3.4,2.9-4,35.7-11.9,72.5-18.8,109.9-22.5,16.9-1.6,34-2.6,43.6-2.4h0Z"/>
  </g>
  <g class="cls-6">
    <text class="cls-5" transform="translate(164 891.5)"><tspan x="0" y="0">e</tspan></text>
    <text class="cls-7" transform="translate(216 891.5)"><tspan x="0" y="0">DOT</tspan></text>
    <text class="cls-8" transform="translate(470.1 891.5)"><tspan x="0" y="0"> </tspan></text>
    <text class="cls-5" transform="translate(499.4 891.5)"><tspan x="0" y="0">Solutions</tspan></text>
  </g>
</svg>