<?xml version="1.0" encoding="UTF-8" standalone="no"?>
<svg
   xmlns:dc="http://purl.org/dc/elements/1.1/"
   xmlns:cc="http://creativecommons.org/ns#"
   xmlns:rdf="http://www.w3.org/1999/02/22-rdf-syntax-ns#"
   xmlns:svg="http://www.w3.org/2000/svg"
   xmlns="http://www.w3.org/2000/svg"
   height="72.699997"
   width="264"
   xml:space="preserve"
   viewBox="0 0 263.99999 72.699998"
   y="0px"
   x="0px"
   id="Ebene_1"
   version="1.1"><metadata
     id="metadata67"><rdf:RDF><cc:Work
         rdf:about=""><dc:format>image/svg+xml</dc:format><dc:type
           rdf:resource="http://purl.org/dc/dcmitype/StillImage" /><dc:title></dc:title></cc:Work></rdf:RDF></metadata><defs
     id="defs65" /><style
     id="style3"
     type="text/css">
	.st0{fill:#FFFFFF;}
	.st1{fill:#E20613;}
	.st2{fill:#1D1D1B;}
</style><g
     transform="translate(-288,-249.6)"
     id="g5"><rect
       style="fill:#ffffff"
       id="rect7"
       height="40.799999"
       width="67.900002"
       class="st0"
       y="250.39999"
       x="288" /><rect
       style="fill:#ffffff"
       id="rect9"
       height="40"
       width="67.900002"
       class="st0"
       y="250.60001"
       x="288" /><g
       id="g11"><path
         style="fill:#e20613"
         id="path13"
         d="m 333.3,269.5 c 0,0.5 0,0.9 0,1.3 0,0.4 0,0.9 0,1.3 l 22.6,9.4 0,-21.3 -22.6,9.3 z m -45.3,18.8 0,2.9 67.9,0 0,-2.9 -23.9,-9.9 c -0.5,0.9 -1.1,1.8 -2,2.7 -2.2,2.2 -5,3.3 -8.2,3.3 -3.2,0 -6,-1.1 -8.2,-3.3 -0.9,-0.9 -1.5,-1.7 -1.9,-2.6 l -23.7,9.8 z m 22.4,-16.1 c 0,-0.5 0,-0.9 0,-1.4 0,-0.5 0,-0.9 0,-1.4 l -22.4,-9.3 0,21.3 22.4,-9.2 z m 45.5,-18.9 0,-2.9 -67.9,0 0,2.9 23.7,9.8 c 0.5,-0.9 1.1,-1.8 1.9,-2.6 2.2,-2.2 5,-3.3 8.2,-3.3 3.2,0 6,1.1 8.2,3.3 0.9,0.9 1.5,1.8 2,2.7 l 23.9,-9.9 z"
         class="st1" /><path
         style="fill:#1d1d1b"
         id="path15"
         d="m 323.8,266.5 c -0.4,-0.5 -1.1,-0.8 -1.9,-0.8 -0.8,0 -1.5,0.3 -1.9,0.8 -0.6,0.6 -0.7,1.4 -0.7,4.3 0,2.9 0.2,3.6 0.7,4.3 0.5,0.5 1.1,0.8 1.9,0.8 0.8,0 1.5,-0.4 1.9,-0.8 0.6,-0.6 0.8,-1.4 0.8,-4.3 -0.1,-2.9 -0.2,-3.7 -0.8,-4.3 M 326,277 c -1,1 -2.3,1.6 -4.1,1.6 -1.8,0 -3.1,-0.6 -4.1,-1.6 -1.5,-1.5 -1.5,-3.3 -1.5,-6.2 0,-2.9 0,-4.7 1.5,-6.2 1,-1 2.4,-1.6 4.1,-1.6 1.7,0 3.1,0.6 4.1,1.6 1.5,1.5 1.6,3.3 1.6,6.2 -0.1,2.9 -0.1,4.7 -1.6,6.2"
         class="st2" /></g><g
       id="g17"><path
         style="fill:#1d1d1b"
         id="path19"
         d="m 385.7,284.3 c 7.4,0 13.5,-6.1 13.5,-13.5 0,-7.4 -6.1,-13.6 -13.5,-13.6 -7.4,0 -13.5,6.2 -13.5,13.6 0,7.4 6.1,13.5 13.5,13.5 m 0,-34.7 c 11.8,0 21.2,9.5 21.2,21.2 0,11.7 -9.4,21.1 -21.2,21.1 -11.8,0 -21.1,-9.4 -21.1,-21.1 0,-11.7 9.3,-21.2 21.1,-21.2"
         class="st2" /><path
         style="fill:#1d1d1b"
         id="path21"
         d="m 430.7,269 c 3.1,0 5.8,-2.7 5.8,-6 0,-3.1 -2.7,-5.7 -5.8,-5.7 l -9.6,0 0,11.7 9.6,0 z m -17.3,-18.8 17.9,0 c 7.1,0 12.8,5.6 12.8,12.6 0,5.4 -3.6,9.8 -8.7,11.9 l 9.1,16.7 -8.8,0 -8.1,-16.1 -6.6,0 0,16.1 -7.6,0 0,-41.2 0,0 z"
         class="st2" /></g><rect
       style="fill:#1d1d1b"
       id="rect23"
       height="41.200001"
       width="7.6999998"
       class="st2"
       y="250.2"
       x="454.10001" /><g
       id="g25"><path
         style="fill:#1d1d1b"
         id="path27"
         d="m 490.4,284.3 c 7.4,0 13.5,-6.1 13.5,-13.5 0,-7.4 -6.1,-13.6 -13.5,-13.6 -7.4,0 -13.5,6.2 -13.5,13.6 0,7.4 6.1,13.5 13.5,13.5 m 0,-34.7 c 11.8,0 21.2,9.5 21.2,21.2 0,11.7 -9.4,21.1 -21.2,21.1 -11.8,0 -21.1,-9.4 -21.1,-21.1 0,-11.7 9.4,-21.2 21.1,-21.2"
         class="st2" /></g><polygon
       style="fill:#1d1d1b"
       id="polygon29"
       points="517.1,291.4 524.7,291.4 524.7,265 524.8,265 549.4,292 552,292 552,250.2 544.3,250.2 544.3,275.6 544.2,275.6 519.7,249.6 518.5,249.6 517.1,249.6 "
       class="st2" /></g><g
     transform="translate(-288,-249.6)"
     id="g31"><path
       id="path33"
       d="m 374.9,311.9 c -0.3,-0.4 -0.6,-0.7 -1,-0.9 -0.4,-0.2 -0.9,-0.3 -1.5,-0.3 -0.3,0 -0.6,0 -0.9,0.1 -0.3,0.1 -0.6,0.2 -0.8,0.4 -0.2,0.2 -0.5,0.4 -0.6,0.7 -0.1,0.3 -0.2,0.6 -0.2,1 0,0.4 0.1,0.7 0.2,0.9 0.1,0.2 0.3,0.5 0.6,0.6 0.2,0.2 0.5,0.3 0.8,0.4 0.3,0.1 0.6,0.2 1,0.3 0.4,0.1 0.8,0.3 1.3,0.4 0.5,0.1 0.8,0.4 1.1,0.6 0.3,0.2 0.6,0.6 0.8,1 0.2,0.4 0.3,0.9 0.3,1.5 0,0.6 -0.1,1.1 -0.3,1.6 -0.2,0.4 -0.5,0.8 -0.9,1.1 -0.4,0.3 -0.8,0.5 -1.3,0.6 -0.5,0.1 -0.9,0.2 -1.4,0.2 -0.4,0 -0.7,0 -1.1,-0.1 -0.4,-0.1 -0.7,-0.2 -1,-0.3 -0.3,-0.1 -0.6,-0.3 -0.9,-0.6 -0.3,-0.2 -0.5,-0.5 -0.7,-0.8 l 1.1,-0.8 c 0.3,0.4 0.6,0.8 1.1,1.1 0.5,0.3 1,0.4 1.7,0.4 0.3,0 0.6,0 0.9,-0.1 0.3,-0.1 0.6,-0.2 0.9,-0.4 0.3,-0.2 0.5,-0.4 0.6,-0.7 0.1,-0.3 0.2,-0.6 0.2,-1 0,-0.4 -0.1,-0.8 -0.2,-1 -0.1,-0.2 -0.4,-0.5 -0.7,-0.7 -0.3,-0.2 -0.6,-0.3 -0.9,-0.5 -0.4,-0.1 -0.7,-0.2 -1.1,-0.4 -0.4,-0.1 -0.8,-0.3 -1.2,-0.4 -0.4,-0.2 -0.7,-0.4 -1,-0.6 -0.3,-0.3 -0.6,-0.6 -0.7,-0.9 -0.1,-0.3 -0.3,-0.8 -0.3,-1.4 0,-0.6 0.1,-1.1 0.3,-1.5 0.2,-0.4 0.5,-0.8 0.9,-1 0.4,-0.3 0.8,-0.5 1.2,-0.6 0.5,-0.1 0.9,-0.2 1.3,-0.2 0.8,0 1.5,0.1 2.1,0.4 0.6,0.3 1,0.6 1.3,1 l -1,0.9 z" /><path
       id="path35"
       d="m 381.6,320.9 6.4,0 0,1.1 -7.7,0 0,-12 7.5,0 0,1.1 -6.2,0 0,4.1 5.8,0 0,1.1 -5.8,0 0,4.6 z" /><path
       id="path37"
       d="m 394.4,322 -1.2,0 0,-12 3.5,0 c 0.6,0 1.1,0.1 1.6,0.2 0.5,0.1 0.9,0.3 1.3,0.6 0.4,0.3 0.7,0.6 0.9,1 0.2,0.4 0.3,0.9 0.3,1.5 0,0.4 -0.1,0.8 -0.2,1.2 -0.2,0.4 -0.4,0.7 -0.6,0.9 -0.3,0.3 -0.6,0.5 -1,0.6 -0.4,0.2 -0.8,0.3 -1.2,0.3 l 3.5,5.7 -1.5,0 -3.3,-5.6 -2,0 0,5.6 z m 0,-6.7 2.1,0 c 1,0 1.7,-0.2 2.3,-0.5 0.5,-0.4 0.8,-0.9 0.8,-1.6 0,-0.4 -0.1,-0.7 -0.2,-1 -0.1,-0.3 -0.4,-0.5 -0.6,-0.7 -0.3,-0.2 -0.6,-0.3 -1,-0.4 -0.4,-0.1 -0.8,-0.1 -1.2,-0.1 l -2.2,0 0,4.3 z" /><path
       id="path39"
       d="m 407.3,322 -1.3,0 0,-12 1.2,0 0,12 z" /><path
       id="path41"
       d="m 424.1,316 c 0,0.9 -0.2,1.8 -0.5,2.5 -0.3,0.8 -0.8,1.4 -1.3,2 -0.6,0.6 -1.2,1 -2,1.3 -0.8,0.3 -1.6,0.5 -2.5,0.5 -0.9,0 -1.7,-0.2 -2.5,-0.5 -0.8,-0.3 -1.4,-0.8 -2,-1.3 -0.6,-0.6 -1,-1.2 -1.3,-2 -0.3,-0.8 -0.5,-1.6 -0.5,-2.5 0,-0.9 0.2,-1.8 0.5,-2.5 0.3,-0.7 0.8,-1.4 1.3,-2 0.6,-0.6 1.2,-1 2,-1.3 0.8,-0.3 1.6,-0.5 2.5,-0.5 0.9,0 1.7,0.2 2.5,0.5 0.8,0.3 1.4,0.8 2,1.3 0.6,0.6 1,1.2 1.3,2 0.3,0.7 0.5,1.5 0.5,2.5 z m -1.3,0 c 0,-0.7 -0.1,-1.4 -0.3,-2 -0.2,-0.6 -0.6,-1.2 -1,-1.7 -0.4,-0.5 -1,-0.9 -1.6,-1.1 -0.6,-0.3 -1.3,-0.4 -2.1,-0.4 -0.8,0 -1.5,0.1 -2.1,0.4 -0.6,0.3 -1.1,0.7 -1.6,1.1 -0.4,0.5 -0.8,1 -1,1.7 -0.2,0.6 -0.3,1.3 -0.3,2 0,0.7 0.1,1.4 0.3,2 0.2,0.6 0.6,1.2 1,1.7 0.4,0.5 1,0.9 1.6,1.1 0.6,0.3 1.3,0.4 2.1,0.4 0.8,0 1.5,-0.1 2.1,-0.4 0.6,-0.3 1.1,-0.7 1.6,-1.1 0.4,-0.5 0.8,-1 1,-1.7 0.2,-0.7 0.3,-1.3 0.3,-2 z" /><path
       id="path43"
       d="m 432.8,322.3 c -0.9,0 -1.6,-0.2 -2.2,-0.5 -0.6,-0.3 -1,-0.7 -1.4,-1.2 -0.3,-0.5 -0.6,-1 -0.7,-1.6 -0.1,-0.6 -0.2,-1.1 -0.2,-1.6 l 0,-7.5 1.2,0 0,7.4 c 0,0.5 0.1,1 0.2,1.4 0.1,0.4 0.3,0.9 0.6,1.2 0.3,0.3 0.6,0.6 1,0.9 0.4,0.2 0.9,0.3 1.5,0.3 0.6,0 1.1,-0.1 1.5,-0.3 0.4,-0.2 0.8,-0.5 1,-0.9 0.2,-0.4 0.4,-0.8 0.6,-1.2 0.1,-0.5 0.2,-0.9 0.2,-1.4 l 0,-7.4 1.2,0 0,7.5 c 0,0.5 -0.1,1 -0.2,1.6 -0.1,0.6 -0.4,1.1 -0.7,1.6 -0.3,0.5 -0.8,0.9 -1.4,1.2 -0.6,0.3 -1.4,0.5 -2.2,0.5 z" /><path
       id="path45"
       d="m 447.9,311.9 c -0.3,-0.4 -0.6,-0.7 -1,-0.9 -0.4,-0.2 -0.9,-0.3 -1.5,-0.3 -0.3,0 -0.6,0 -0.9,0.1 -0.3,0.1 -0.6,0.2 -0.8,0.4 -0.2,0.2 -0.5,0.4 -0.6,0.7 -0.1,0.3 -0.2,0.6 -0.2,1 0,0.4 0.1,0.7 0.2,0.9 0.1,0.2 0.3,0.5 0.6,0.6 0.2,0.2 0.5,0.3 0.8,0.4 0.3,0.1 0.6,0.2 1,0.3 0.4,0.1 0.8,0.3 1.3,0.4 0.5,0.1 0.8,0.4 1.1,0.6 0.3,0.2 0.6,0.6 0.8,1 0.2,0.4 0.3,0.9 0.3,1.5 0,0.6 -0.1,1.1 -0.3,1.6 -0.2,0.4 -0.5,0.8 -0.9,1.1 -0.4,0.3 -0.8,0.5 -1.3,0.6 -0.5,0.1 -0.9,0.2 -1.4,0.2 -0.4,0 -0.7,0 -1.1,-0.1 -0.4,-0.1 -0.7,-0.2 -1,-0.3 -0.3,-0.1 -0.6,-0.3 -0.9,-0.6 -0.3,-0.2 -0.5,-0.5 -0.7,-0.8 l 1.1,-0.8 c 0.3,0.4 0.6,0.8 1.1,1.1 0.5,0.3 1,0.4 1.7,0.4 0.3,0 0.6,0 0.9,-0.1 0.3,-0.1 0.6,-0.2 0.9,-0.4 0.3,-0.2 0.5,-0.4 0.6,-0.7 0.1,-0.3 0.2,-0.6 0.2,-1 0,-0.4 -0.1,-0.8 -0.2,-1 -0.1,-0.2 -0.4,-0.5 -0.7,-0.7 -0.3,-0.2 -0.6,-0.3 -0.9,-0.5 -0.4,-0.1 -0.7,-0.2 -1.1,-0.4 -0.4,-0.1 -0.8,-0.3 -1.2,-0.4 -0.4,-0.2 -0.7,-0.4 -1,-0.6 -0.3,-0.3 -0.6,-0.6 -0.7,-0.9 -0.1,-0.3 -0.3,-0.8 -0.3,-1.4 0,-0.6 0.1,-1.1 0.3,-1.5 0.2,-0.4 0.5,-0.8 0.9,-1 0.4,-0.3 0.8,-0.5 1.2,-0.6 0.5,-0.1 0.9,-0.2 1.3,-0.2 0.8,0 1.5,0.1 2.1,0.4 0.6,0.3 1,0.6 1.3,1 l -1,0.9 z" /><path
       id="path47"
       d="m 465.2,311.9 c -0.3,-0.4 -0.6,-0.7 -1,-0.9 -0.4,-0.2 -0.9,-0.3 -1.5,-0.3 -0.3,0 -0.6,0 -0.9,0.1 -0.3,0.1 -0.6,0.2 -0.8,0.4 -0.2,0.2 -0.5,0.4 -0.6,0.7 -0.1,0.3 -0.2,0.6 -0.2,1 0,0.4 0.1,0.7 0.2,0.9 0.1,0.2 0.3,0.5 0.6,0.6 0.2,0.2 0.5,0.3 0.8,0.4 0.3,0.1 0.6,0.2 1,0.3 0.4,0.1 0.8,0.3 1.3,0.4 0.5,0.1 0.8,0.4 1.1,0.6 0.3,0.2 0.6,0.6 0.8,1 0.2,0.4 0.3,0.9 0.3,1.5 0,0.6 -0.1,1.1 -0.3,1.6 -0.2,0.4 -0.5,0.8 -0.9,1.1 -0.4,0.3 -0.8,0.5 -1.3,0.6 -0.5,0.1 -0.9,0.2 -1.4,0.2 -0.4,0 -0.7,0 -1.1,-0.1 -0.4,-0.1 -0.7,-0.2 -1,-0.3 -0.3,-0.1 -0.6,-0.3 -0.9,-0.6 -0.3,-0.2 -0.5,-0.5 -0.7,-0.8 l 1.1,-0.8 c 0.3,0.4 0.6,0.8 1.1,1.1 0.5,0.3 1,0.4 1.7,0.4 0.3,0 0.6,0 0.9,-0.1 0.3,-0.1 0.6,-0.2 0.9,-0.4 0.3,-0.2 0.5,-0.4 0.6,-0.7 0.1,-0.3 0.2,-0.6 0.2,-1 0,-0.4 -0.1,-0.8 -0.2,-1 -0.1,-0.2 -0.4,-0.5 -0.7,-0.7 -0.3,-0.2 -0.6,-0.3 -0.9,-0.5 -0.4,-0.1 -0.7,-0.2 -1.1,-0.4 -0.4,-0.1 -0.8,-0.3 -1.2,-0.4 -0.4,-0.2 -0.7,-0.4 -1,-0.6 -0.3,-0.3 -0.6,-0.6 -0.7,-0.9 -0.1,-0.3 -0.3,-0.8 -0.3,-1.4 0,-0.6 0.1,-1.1 0.3,-1.5 0.2,-0.4 0.5,-0.8 0.9,-1 0.4,-0.3 0.8,-0.5 1.2,-0.6 0.5,-0.1 0.9,-0.2 1.3,-0.2 0.8,0 1.5,0.1 2.1,0.4 0.6,0.3 1,0.6 1.3,1 l -1,0.9 z" /><path
       id="path49"
       d="m 470.6,309.9 1.2,0 0,5.2 6.6,0 0,-5.2 1.2,0 0,12 -1.2,0 0,-5.7 -6.6,0 0,5.7 -1.2,0 0,-12 z" /><path
       id="path51"
       d="m 485.7,322 -1.2,0 0,-12 1.2,0 0,12 z" /><path
       id="path53"
       d="m 490.6,309.9 3.4,0 c 0.6,0 1.2,0.1 1.7,0.2 0.5,0.1 0.9,0.3 1.3,0.6 0.4,0.3 0.6,0.6 0.8,1 0.2,0.4 0.3,0.9 0.3,1.4 0,0.5 -0.1,1 -0.3,1.4 -0.2,0.4 -0.5,0.7 -0.8,1 -0.4,0.3 -0.8,0.5 -1.3,0.6 -0.5,0.1 -1.1,0.2 -1.7,0.2 l -2.1,0 0,5.6 -1.2,0 0,-12 z m 1.3,5.4 2.1,0 c 1,0 1.7,-0.2 2.2,-0.6 0.5,-0.4 0.7,-0.9 0.7,-1.6 0,-0.8 -0.3,-1.3 -0.8,-1.6 -0.5,-0.3 -1.2,-0.5 -2.2,-0.5 l -2.1,0 0,4.3 z" /><path
       id="path55"
       d="m 502.2,309.9 3.4,0 c 0.6,0 1.2,0.1 1.7,0.2 0.5,0.1 0.9,0.3 1.3,0.6 0.4,0.3 0.6,0.6 0.8,1 0.2,0.4 0.3,0.9 0.3,1.4 0,0.5 -0.1,1 -0.3,1.4 -0.2,0.4 -0.5,0.7 -0.8,1 -0.4,0.3 -0.8,0.5 -1.3,0.6 -0.5,0.1 -1.1,0.2 -1.7,0.2 l -2.1,0 0,5.6 -1.2,0 0,-12 z m 1.2,5.4 2.1,0 c 1,0 1.7,-0.2 2.2,-0.6 0.5,-0.4 0.7,-0.9 0.7,-1.6 0,-0.8 -0.3,-1.3 -0.8,-1.6 -0.5,-0.3 -1.2,-0.5 -2.2,-0.5 l -2.1,0 0,4.3 z" /><path
       id="path57"
       d="m 515,322 -1.2,0 0,-12 1.2,0 0,12 z" /><path
       id="path59"
       d="m 528.4,320.2 0,0 0,-10.3 1.2,0 0,12 -1.5,0 -7,-10.4 0,0 0,10.5 -1.2,0 0,-12 1.5,0 7,10.2 z" /><path
       id="path61"
       d="m 543.7,312.1 c -0.4,-0.4 -0.9,-0.8 -1.5,-1 -0.6,-0.2 -1.2,-0.4 -2,-0.4 -0.8,0 -1.5,0.1 -2.1,0.4 -0.6,0.3 -1.1,0.7 -1.6,1.1 -0.5,0.4 -0.8,1 -1,1.7 -0.2,0.6 -0.3,1.3 -0.3,2 0,0.7 0.1,1.4 0.3,2 0.2,0.6 0.6,1.2 1,1.7 0.4,0.5 1,0.9 1.6,1.1 0.6,0.3 1.3,0.4 2.1,0.4 0.7,0 1.3,-0.1 1.9,-0.2 0.6,-0.1 1,-0.3 1.4,-0.6 l 0,-3.7 -2.8,0 0,-1.1 4,0 0,5.4 c -0.7,0.4 -1.4,0.7 -2.1,0.9 -0.8,0.2 -1.5,0.3 -2.4,0.3 -0.9,0 -1.7,-0.2 -2.5,-0.5 -0.8,-0.3 -1.4,-0.8 -2,-1.3 -0.6,-0.6 -1,-1.2 -1.3,-2 -0.3,-0.8 -0.5,-1.6 -0.5,-2.5 0,-0.9 0.2,-1.8 0.5,-2.5 0.3,-0.7 0.8,-1.4 1.3,-2 0.6,-0.6 1.2,-1 2,-1.3 0.8,-0.3 1.6,-0.5 2.5,-0.5 1,0 1.8,0.1 2.5,0.4 0.7,0.3 1.3,0.7 1.8,1.2 l -0.8,1 z" /></g></svg>